<svg xmlns="http://www.w3.org/2000/svg" xmlns:xlink="http://www.w3.org/1999/xlink" viewBox="0 0 160.68 143.55"><defs><style>.cls-1,.cls-2,.cls-8{stroke:#fff;stroke-miterlimit:10;stroke-width:2px;}.cls-1{fill:url(#linear-gradient);}.cls-2{fill:url(#linear-gradient-2);}.cls-3{fill:url(#linear-gradient-3);}.cls-4{fill:#fff;}.cls-5{fill:url(#linear-gradient-4);}.cls-6{fill:#2d913c;}.cls-7{fill:url(#linear-gradient-5);}.cls-8{fill:url(#linear-gradient-6);}</style><linearGradient id="linear-gradient" x1="16.7" y1="22.82" x2="39.82" y2="45.94" gradientUnits="userSpaceOnUse"><stop offset="0" stop-color="#ff911e"/><stop offset="0" stop-color="#0dc962"/><stop offset="1" stop-color="#acffa5"/></linearGradient><linearGradient id="linear-gradient-2" x1="11.74" y1="39.26" x2="27.75" y2="55.27" xlink:href="#linear-gradient"/><linearGradient id="linear-gradient-3" x1="43.44" y1="35.17" x2="100.06" y2="91.79" gradientUnits="userSpaceOnUse"><stop offset="0" stop-color="#ff643c"/><stop offset="1" stop-color="#ffff79"/></linearGradient><linearGradient id="linear-gradient-4" x1="28.68" y1="48.51" x2="92.11" y2="111.93" xlink:href="#linear-gradient-3"/><linearGradient id="linear-gradient-5" x1="71.12" y1="30.69" x2="148.41" y2="107.98" gradientUnits="userSpaceOnUse"><stop offset="0" stop-color="#9614dc"/><stop offset="1" stop-color="#ff32fa"/></linearGradient><linearGradient id="linear-gradient-6" x1="80.48" y1="117.33" x2="107.23" y2="144.08" xlink:href="#linear-gradient"/></defs><title>Asset 12</title><g id="Layer_2" data-name="Layer 2"><g id="Layer_1-2" data-name="Layer 1"><path class="cls-1" d="M35.16,50.6c-.22.39-5.59-3-6-3.35-2.21-1.64-9.37-6.6-11-8.84C15,34,22.7,16.83,22.7,16.83s9.78,5.55,14.59,13.5S38.43,44.43,35.16,50.6Z"/><path class="cls-2" d="M37.51,45c.33.31-4.24,4.74-4.67,5.09a26.62,26.62,0,0,1-7.06,4.22c-5,2-24-5.07-24-5.07s7.69-8.22,16.55-11S32.27,40.42,37.51,45Z"/><path class="cls-3" d="M68.7,95.83c-7.94,0-13.11-1.63-15.36-4.85-1.6-2.28-6.78-19.24-12.4-37.93-1.4-4.68-2.65-8.82-3.14-10.3H36.36l1.36-1.64A37.82,37.82,0,0,1,61.28,27.87a31.84,31.84,0,0,1,4.39-.3c14.62,0,30.05,9.83,36.67,23.36A50.19,50.19,0,0,1,106,62.22c3.93,18.51-4.41,28-4.76,28.35l-.2.21-.28.08c-.18,0-18.28,5-32.08,5Z"/><path class="cls-4" d="M65.67,28.57c14.61,0,29.47,9.93,35.77,22.8a48.66,48.66,0,0,1,3.61,11.06c3.87,18.22-4.53,27.47-4.53,27.47s-18,4.93-31.81,4.93c-6.59,0-12.24-1.12-14.55-4.42S38.8,41.75,38.49,41.75h0A36.62,36.62,0,0,1,61.41,28.86a32.09,32.09,0,0,1,4.26-.29m0-2a34,34,0,0,0-4.53.31A38.82,38.82,0,0,0,37,40.47l-7.51,9,8-4.77C38,46.79,39,50,40,53.33c7,23.11,11,36,12.54,38.23C55,95.1,60.3,96.83,68.71,96.83c13.94,0,31.6-4.8,32.34-5l.56-.16.4-.43c.37-.41,9-10.23,5-29.22a51.48,51.48,0,0,0-3.77-11.53C96.45,36.63,80.66,26.57,65.67,26.57Z"/><path class="cls-5" d="M74.33,116.11a80,80,0,0,1-34.43-8.35C26.29,101,18,89,17.71,75.57A37.12,37.12,0,0,1,36,42.88l.3-.17.51-.31a37.55,37.55,0,0,1,18.15-4.62c9.26,0,17.66,3.29,23.67,9.26a73.5,73.5,0,0,1,8.28,9.81c7,9.9,11.2,21.65,12.63,34.94.64,5.93-.23,10.87-2.57,14.69a19.4,19.4,0,0,1-10.17,7.8,28.67,28.67,0,0,1-7,1.57c-1.75.17-3.59.26-5.46.26Z"/><path class="cls-4" d="M54.94,38.78a32.4,32.4,0,0,1,23,9,71.49,71.49,0,0,1,8.16,9.68C93.25,67.65,97.19,79.52,98.52,91.9c.52,4.81.11,9.93-2.42,14a18.39,18.39,0,0,1-9.66,7.39,28.11,28.11,0,0,1-6.74,1.52c-1.76.17-3.55.25-5.37.25a79.74,79.74,0,0,1-34-8.24C28.06,100.75,19,89.62,18.71,75.55a36.29,36.29,0,0,1,17.78-31.8c.26-.16.52-.33.78-.47a36.67,36.67,0,0,1,17.67-4.5m0-2a38.43,38.43,0,0,0-18.63,4.75l-.56.32-.27.17A38.1,38.1,0,0,0,16.71,75.59c.29,13.76,8.79,26.12,22.75,33.07a81.11,81.11,0,0,0,34.87,8.45c1.9,0,3.77-.09,5.56-.26a29.71,29.71,0,0,0,7.23-1.63A20.35,20.35,0,0,0,97.8,107c2.46-4,3.38-9.16,2.71-15.32-1.45-13.46-5.76-25.37-12.8-35.4a73.54,73.54,0,0,0-8.39-10c-6.2-6.16-14.86-9.55-24.38-9.55Z"/><path class="cls-6" d="M15.62,55.71l.14-.14"/><path class="cls-7" d="M99.1,140.85a17.46,17.46,0,0,1-12.32-4.78c-4.74-4.44-6.65-11.44-4.66-17,1.25-3.5,3.89-6,6.44-8.38a25,25,0,0,0,5.3-6.15c1.64-3.06,2.07-7.1,1.27-12-1.24-7.64-4.31-14.92-7.27-22s-6-14.29-7.38-22.06c-2.72-15.64,1.18-29.17,11-38.1A37.78,37.78,0,0,1,96,6.85,36,36,0,0,1,115.81,1,36.76,36.76,0,0,1,145,15.22C154.63,27.58,160,45,159.66,63c-.54,30.74-18.78,60.35-45.39,73.68-5.58,2.8-10.68,4.21-15.16,4.21Z"/><path class="cls-4" d="M115.81,2A36,36,0,0,1,144.2,15.83C154.33,28.81,159,46.66,158.66,63c-.52,29.58-18.19,59.44-44.84,72.8-4.63,2.31-9.76,4.1-14.72,4.1a16.44,16.44,0,0,1-11.64-4.51c-4.19-3.93-6.38-10.39-4.4-16,2.13-6,8.74-8.89,11.68-14.38,2-3.81,2.07-8.39,1.38-12.65-2.5-15.37-12-28.56-14.65-44-2.38-13.65.07-27.54,10.68-37.19a35.85,35.85,0,0,1,4.44-3.43A35,35,0,0,1,115.81,2m0-2a37,37,0,0,0-25,9.64c-10.08,9.17-14.1,23-11.31,39,1.37,7.89,4.45,15.2,7.44,22.28,3.07,7.31,6,14.21,7.21,21.73.76,4.69.37,8.52-1.17,11.38a24.47,24.47,0,0,1-5.1,5.89c-2.64,2.48-5.37,5-6.7,8.77C79,124.75,81,132,86.1,136.8a18.41,18.41,0,0,0,13,5c4.64,0,9.89-1.45,15.61-4.32a82,82,0,0,0,33-31.06A86.83,86.83,0,0,0,160.66,63c.33-18.21-5.1-35.84-14.88-48.38a37.78,37.78,0,0,0-30-14.6Z"/><path class="cls-8" d="M114.31,137c-9.13,4.58-20.12,9.08-28.3,1.41-.44-.41-8.09,3.35-10,1.18-2.88-4.18,7.12-7.18,6.12-9.18a14.82,14.82,0,0,1-.88-11c2.29-6.43,9.39-9.56,12.55-15.45,0,0,3.42,14.39-2.24,20a42.79,42.79,0,0,0,12.73-8.49s0,12.73-6.36,17.68C102.44,131.94,108.4,134.53,114.31,137Z"/></g></g></svg>