<?xml version="1.0" encoding="utf-8"?>
<!-- Generator: Adobe Illustrator 24.1.0, SVG Export Plug-In . SVG Version: 6.00 Build 0)  -->
<svg version="1.1" id="Layer_1" xmlns="http://www.w3.org/2000/svg" xmlns:xlink="http://www.w3.org/1999/xlink" x="0px" y="0px"
	 viewBox="0 0 1345.8 1198.1" style="enable-background:new 0 0 1345.8 1198.1;" xml:space="preserve">
<style type="text/css">
	.st0{opacity:0.2;fill:#00FFFF;enable-background:new    ;}
</style>
<g id="Layer_2_1_">
	<g id="Layer_1-2">
		<path class="st0" d="M719.4,119.1c80.5,98.8,41,175.6,97,243.2c51.1,61.6,132.7,79,206.3,95.6c82.4,18.6,159,63.4,215,126.7
			c88.3,99.9,128.9,245,70.8,369.9c-34.8,74.8-97.2,134.7-168.7,175.8c-75.3,43.3-161.6,67.1-248.4,68.6c-0.5,0-0.9,0-1.4,0
			c-42.7,0.6-87.5-5-122.3-29.6c-52.8-37.4-69.1-107.7-75.4-172.1C681.1,879.3,658,754.5,542.8,694
			c-96.1-50.5-214.7-40.1-318.2-23.8c-56.2,8.9-147.7,41.3-198.7,1.7c-101.5-78.8,56.5-285,102.7-355.7
			C226.9,147,354.1,2.8,501.5,6.2C612.5,20.5,675.7,63.9,719.4,119.1z"/>
	</g>
</g>
</svg>
