<?xml version="1.0" encoding="utf-8"?>
<!-- Generator: Adobe Illustrator 24.1.0, SVG Export Plug-In . SVG Version: 6.00 Build 0)  -->
<svg version="1.1" id="Layer_1" xmlns="http://www.w3.org/2000/svg" xmlns:xlink="http://www.w3.org/1999/xlink" x="0px" y="0px"
	 viewBox="0 0 1345.8 1198.1" style="enable-background:new 0 0 1345.8 1198.1;" xml:space="preserve">
<style type="text/css">
	.st0{opacity:0.2;fill:#00FFFF;enable-background:new    ;}
</style>
<g id="Layer_2_1_">
	<g id="Layer_1-2">
		<path class="st0" d="M890.2,1199.5c-9,0-18-0.3-26.9-0.9c-47.5-3.1-96.1-20.9-126.4-57.7c-37.4-45.5-37.9-105-43.7-160.6
			c-6.6-62.3-18.4-125.3-47.3-181.5c-81.2-158.4-269.4-152.6-421.3-128.6c-56.2,8.9-147.7,41.3-198.7,1.7
			c-101.5-78.8,56.5-285,102.7-355.7C216.4,182,359.1-16.3,543.3,4c48.2,5.3,92.2,27.8,129.4,58.3c96.4,79.1,69.7,200.4,138,292.6
			c47.6,64.3,134.8,88.2,208.8,104.9c83.9,18.9,160.8,60.6,218.8,124.7c112.5,124.2,140.9,306,28.2,439.5
			C1178.1,1128.8,1029.5,1199.3,890.2,1199.5z"/>
	</g>
</g>
</svg>
