<?xml version="1.0" encoding="utf-8"?>
<!-- Generator: Adobe Illustrator 24.1.0, SVG Export Plug-In . SVG Version: 6.00 Build 0)  -->
<svg version="1.1" id="Layer_1" xmlns="http://www.w3.org/2000/svg" xmlns:xlink="http://www.w3.org/1999/xlink" x="0px" y="0px"
	 viewBox="0 0 1055.6 1180.2" style="enable-background:new 0 0 1055.6 1180.2;" xml:space="preserve">
<style type="text/css">
	.st0{opacity:0.2;fill:#00FFFF;enable-background:new    ;}
</style>
<g id="Layer_2_1_">
	<g id="Layer_1-2">
		<path class="st0" d="M704.8,202.7c35,79.2,20.1,169.2,48,249.9c15.4,44.4,45.4,86,88.6,104.5c36.2,15.4,77,13.3,116,18.5
			c65.1,8.7,114.7,51.1,79.8,120.1c-11,21.7-27.5,40-42.7,58.9c-56.2,69.6-79.8,141.8-103.3,226.2c-44.1,158.3-201.2,165.8-314,67.2
			c-74.8-65.4-125.8-157.5-141.6-255.7c-6.5-40.4-7.2-81.7-17.7-121.3C383.2,540.2,213.8,479.9,92.8,478.6
			c-68.2-0.7-123-15.7-114.7-94.6c5.7-54.5,38.7-117.9,77.8-156.2C137,148.3,263.6,93.4,374,71c20.1-4.1,40.6-6.8,61.1-8
			C593.7,64.9,668.3,121.4,704.8,202.7z"/>
	</g>
</g>
</svg>
