<?xml version="1.0" encoding="utf-8"?>
<!-- Generator: Adobe Illustrator 24.1.0, SVG Export Plug-In . SVG Version: 6.00 Build 0)  -->
<svg version="1.1" id="Layer_1" xmlns="http://www.w3.org/2000/svg" xmlns:xlink="http://www.w3.org/1999/xlink" x="0px" y="0px"
	 viewBox="0 0 1055.6 1180.2" style="enable-background:new 0 0 1055.6 1180.2;" xml:space="preserve">
<style type="text/css">
	.st0{opacity:0.2;fill:#00FFFF;enable-background:new    ;}
</style>
<g id="Layer_2_1_">
	<g id="Layer_1-2">
		<path class="st0" d="M435.1,4.5c120.5-8,242.9,44,279.3,166.2c15,50.3,17.7,103.4,25.6,155.3c12,79.9,38.8,163.4,127.7,180.4
			c36.5,7,74.2,6.2,110.4,14.4c19,4.3,37.7,11.2,52.7,23.6c63.8,52.8-9.9,129.3-48.3,171.2c-59,64.4-110.6,114.3-91.2,206.5
			c8.7,41.5,15.7,83.5,17.4,125.9c0.9,22.3,0.3,45.1-6.4,66.4c-13.7,43.6-50.8,63.9-94.5,66.1c-1.8,0.1-3.6,0.2-5.4,0.2
			c-69,1.3-134.5-39.8-175.5-95.6c-71.3-97-67.4-216.6-95-328.4c-19.9-80.7-47.2-159.6-81.6-235.3
			C403.6,418.8,337.9,336.5,215,371.6c-50.7,14.5-94.2,48.3-146.9,51.3c-12.8,0.7-43.4-5.3-55.1-21.2
			C-104.1,271.1,104.2,38.3,435.1,4.5z"/>
	</g>
</g>
</svg>
