<?xml version="1.0" encoding="utf-8"?>
<!-- Generator: Adobe Illustrator 24.1.0, SVG Export Plug-In . SVG Version: 6.00 Build 0)  -->
<svg version="1.1" id="Layer_1" xmlns="http://www.w3.org/2000/svg" xmlns:xlink="http://www.w3.org/1999/xlink" x="0px" y="0px"
	 viewBox="0 0 1250.6 1134.7" style="enable-background:new 0 0 1250.6 1134.7;" xml:space="preserve">
<style type="text/css">
	.st0{opacity:0.2;fill:#00FFFF;enable-background:new    ;}
</style>
<g id="Layer_2_1_">
	<g id="Layer_1-2">
		<path class="st0" d="M664.7,1034c-46.8-76.9-22.1-238.9-116.4-277.8c-27.9-11.5-59-12.1-89.3-12.4C252.3,741.4,32.3,666,2.3,431.8
			c-13-101.1,18.4-204.6,92.7-275.4c50.3-48,113.5-80.5,178.1-106.2c63-25.1,131-44.6,199.4-35c85,11.9,193.4,85.5,154,183.8
			c-11.4,28.6-30.9,53.1-46.9,79.4c-8.8,14.5-16.7,32.3-10.1,48c8.8,21.1,36.9,24.7,59.7,23c95.3-7,186.5-47.3,283.2-33.3
			c84.3,12.2,162.2,54.7,220.8,116.1c136.4,142.8,177.2,455.5,24,602.3c-49,47-116.4,69.5-182.8,83.8
			c-89.6,19.3-191.8,23.7-263.9-32.9C690.7,1069.8,676,1052.5,664.7,1034z"/>
	</g>
</g>
</svg>
