<?xml version="1.0" encoding="utf-8"?>
<!-- Generator: Adobe Illustrator 24.1.0, SVG Export Plug-In . SVG Version: 6.00 Build 0)  -->
<svg version="1.1" id="Layer_1" xmlns="http://www.w3.org/2000/svg" xmlns:xlink="http://www.w3.org/1999/xlink" x="0px" y="0px"
	 viewBox="0 0 1328.3 1313.6" style="enable-background:new 0 0 1328.3 1313.6;" xml:space="preserve">
<style type="text/css">
	.st0{opacity:0.2;fill:#00FFFF;enable-background:new    ;}
</style>
<g id="Layer_2_1_">
	<g id="Layer_1-2">
		<path class="st0" d="M539.8-10.8c-56.2-1.2-115,5.9-174.6,20.9C-34.5,122.5-36.9,315.7,26.3,398c22.9,22.9,54.6,34.8,86.2,42.1
			c74.5,17.1,152.4,12.1,227.9,24C481.4,486.2,480,631.1,413,731.3c-76,113.6-226.7,172-264,312.1c-6.2,23.1-8.4,47.8-2.4,71
			c7.4,28.6,26.9,52.8,50,71.1c99.8,79.2,252.8,103.2,376.8,118c224.3,26.8,490.9,14.3,667.8-145.2c50.5-45.6,86.9-114.6,44.4-177
			c-13.5-19.8-30.4-35.9-49.5-48.7c-36-24-79.8-36.2-123.6-39.2c-70.6-4.7-139.4,18.1-209.7,13.8c-40.2-2.4-81.1-14.8-110.9-42.1
			c-28.1-25.7-44.1-62.8-48.6-100.6c-11.8-97.6,39.2-198.8,83.8-282.5c28.7-53.9,58.1-108.5,70.4-168.3
			c18.7-90.3,2.8-169.6-54.6-227S689.7-4.6,539.8-10.8z"/>
	</g>
</g>
</svg>
