<?xml version="1.0" encoding="utf-8"?>
<!-- Generator: Adobe Illustrator 24.1.0, SVG Export Plug-In . SVG Version: 6.00 Build 0)  -->
<svg version="1.1" id="Layer_1" xmlns="http://www.w3.org/2000/svg" xmlns:xlink="http://www.w3.org/1999/xlink" x="0px" y="0px"
	 viewBox="0 0 1328.3 1302.9" style="enable-background:new 0 0 1328.3 1302.9;" xml:space="preserve">
<style type="text/css">
	.st0{opacity:0.2;fill:#00FFFF;enable-background:new    ;}
</style>
<g id="Layer_2_1_">
	<g id="Layer_1-2">
		<path class="st0" d="M1236.7,931.9c-53.6-47.3-123.7-87.3-161.8-124.1c-64.3-62.2-117.6-154.8-137.9-241.6
			c-32-137,23.5-282.1-57.5-408.6C794.2,24.3,630.2-6.4,482.2-3.2c-140.5,3-289.8,45.1-390,148.4c-13.6,14.1-26.2,29.2-37.6,45.1
			c-49.9,70.4-92.3,194.5,14.2,236c67.7,26.4,140.2,14,209.6,2.8c52.3-8.5,155.2-36.1,194.1,12.3c57.5,71.5-33.9,220.4-66.5,286.4
			c-41.7,84.5-88.9,187.3-58,282.9c19.7,61,68,108.5,119.5,146.5c125.4,92.6,294.8,155,452.2,141.3c104.7-9.1,219.3-44.7,303.9-108
			c32.4-24.2,61.8-54.5,76.1-92.3C1325.2,1031,1285.4,975,1236.7,931.9z"/>
	</g>
</g>
</svg>
