<?xml version="1.0" encoding="utf-8"?>
<!-- Generator: Adobe Illustrator 24.1.0, SVG Export Plug-In . SVG Version: 6.00 Build 0)  -->
<svg version="1.1" id="Layer_1" xmlns="http://www.w3.org/2000/svg" xmlns:xlink="http://www.w3.org/1999/xlink" x="0px" y="0px"
	 viewBox="0 0 1328.3 1302.9" style="enable-background:new 0 0 1328.3 1302.9;" xml:space="preserve">
<style type="text/css">
	.st0{opacity:0.2;fill:#00FFFF;enable-background:new    ;}
</style>
<g id="Layer_2_1_">
	<g id="Layer_1-2">
		<path class="st0" d="M779.7,39.7c-151.9-47.2-328.5-39.3-481,1.5c-25,6.7-49.7,14.5-73.6,24.3c-36.1,14.9-71.4,33-102.2,57.3
			c-25.2,19.8-48.2,42.4-68.2,67.6c-49.9,70.4-92.3,194.5,14.2,236c67.7,26.4,140.2,14,209.6,2.8c52.3-8.5,155.2-36.1,194.1,12.3
			c57.5,71.5-33.9,220.4-66.5,286.4c-41.7,84.5-88.9,187.3-58,282.9c19.7,61,68,108.5,119.5,146.5c125.4,92.6,294.8,155,452.2,141.3
			c104.7-9.1,219.3-44.7,303.9-108c32.4-24.2,61.8-54.5,76.1-92.3c28.2-74.8-29.7-142.7-85.5-185.7
			C1099.4,824.1,994,751.1,978.8,592.7c-13.5-140.3,68.5-309.7-20-435.4C910.1,101,885.8,78.2,779.7,39.7z"/>
	</g>
</g>
</svg>
