<?xml version="1.0" encoding="utf-8"?>
<!-- Generator: Adobe Illustrator 24.1.0, SVG Export Plug-In . SVG Version: 6.00 Build 0)  -->
<svg version="1.1" id="Layer_1" xmlns="http://www.w3.org/2000/svg" xmlns:xlink="http://www.w3.org/1999/xlink" x="0px" y="0px"
	 viewBox="0 0 1125.8 1180.2" style="enable-background:new 0 0 1125.8 1180.2;" xml:space="preserve">
<style type="text/css">
	.st0{opacity:0.2;fill:#00FFFF;enable-background:new    ;}
</style>
<g id="Layer_2_1_">
	<g id="Layer_1-2">
		<path class="st0" d="M802.1,1177.9c-46.7,2.2-92.6-8-129.2-36.1c-68.3-52.4-92.6-128.3-107.4-209c-17-92.7-39.4-186-85.4-269.2
			c-32.6-59-77.6-112.4-135.7-146.5C264,470,177.1,479.9,91.6,454.3C-37.2,415.8-6.5,292.6,64.7,205.5
			c74.9-91.8,180.1-158.5,295.2-187.1C444.8-2.8,539.6-2,614.1,43.9C681.1,85.2,720.4,155,755,223.2c30.4,59.9,70.8,114.8,113.2,167
			c56.7,69.7,135.9,105.4,183.8,184.3c105.9,174.4,87.8,421.2-86.3,546C921.4,1152.4,861.1,1175.1,802.1,1177.9z"/>
	</g>
</g>
</svg>
