<?xml version="1.0" encoding="utf-8"?>
<!-- Generator: Adobe Illustrator 24.1.0, SVG Export Plug-In . SVG Version: 6.00 Build 0)  -->
<svg version="1.1" id="Layer_1" xmlns="http://www.w3.org/2000/svg" xmlns:xlink="http://www.w3.org/1999/xlink" x="0px" y="0px"
	 viewBox="0 0 1094.6 1375.3" style="enable-background:new 0 0 1094.6 1375.3;" xml:space="preserve">
<style type="text/css">
	.st0{opacity:0.2;fill:#00FFFF;enable-background:new    ;}
</style>
<g id="Layer_2_1_">
	<g id="Layer_1-2">
		<path class="st0" d="M1073.6,627.4c0.3-1.3,0.6-2.5,0.9-3.7c49.9-204.2,20.4-555.2-232.8-610.8C771.6-2.5,697.7,9,629.8,32.8
			c-54.5,19.1-108.3,47.8-141.6,95.1c-49.5,70.4-11.6,139.1,11,210.5c23.8,75.4,12.8,159.8-30.1,226.7
			c-79.1,123.5-203.2,114.3-329.3,144C-9.5,744.4-23.3,1015,28.7,1125.4c38.9,82.6,107.8,148.4,184.9,197.3
			c44.3,28.1,93.7,51.7,146.1,52.1c107.9,0.9,157.3-110.2,169.3-203c7-53.9,1.7-115.1,38.3-155.2c41.5-45.3,111.3-39.5,166.9-46
			C914.4,949.7,1031.8,793.2,1073.6,627.4z"/>
	</g>
</g>
</svg>
