<?xml version="1.0" encoding="utf-8"?>
<!-- Generator: Adobe Illustrator 24.1.0, SVG Export Plug-In . SVG Version: 6.00 Build 0)  -->
<svg version="1.1" id="Layer_1" xmlns="http://www.w3.org/2000/svg" xmlns:xlink="http://www.w3.org/1999/xlink" x="0px" y="0px"
	 viewBox="0 0 1175.8 1246.6" style="enable-background:new 0 0 1175.8 1246.6;" xml:space="preserve">
<style type="text/css">
	.st0{opacity:0.2;fill:#00FFFF;enable-background:new    ;}
</style>
<g id="Layer_2_1_">
	<g id="Layer_1-2">
		<path class="st0" d="M505.1,147.6c12.2,57.2,9.6,116.4,15.5,174.6c11.2,109.8,155.2,134,241.6,162.3
			c129.2,42.3,292.2,81.1,374.4,199.8c77.4,111.8-8.3,260.3-81.4,352.5c-24,30.3-50.9,58.3-80.2,83.6
			c-43.8,37.7-92.8,69.3-145.6,92.8c-59.6,26.5-184.1,71.6-211.6-20.3c-7.3-24.3-4.4-50.5,1.2-75.2c18.8-83.6,66.7-159.2,79.7-243.9
			c3.4-21.9,4.2-44.7-2.8-65.7c-16.6-49.3-72.3-61.1-118.2-63.4C416,736.3,166.6,773.5,53,623c-67.2-89-60.7-220.2-39.8-323.9
			C36.8,182.8,126.8,90,229.5,36.3C280.9,9.4,353.3-16.5,409.2,8.6C475.5,38.2,502.8,89.5,505.1,147.6z"/>
	</g>
</g>
</svg>
