<?xml version="1.0" encoding="utf-8"?>
<!-- Generator: Adobe Illustrator 24.1.0, SVG Export Plug-In . SVG Version: 6.00 Build 0)  -->
<svg version="1.1" id="Layer_1" xmlns="http://www.w3.org/2000/svg" xmlns:xlink="http://www.w3.org/1999/xlink" x="0px" y="0px"
	 viewBox="0 0 1257.7 1048.8" style="enable-background:new 0 0 1257.7 1048.8;" xml:space="preserve">
<style type="text/css">
	.st0{opacity:0.2;fill:#00FFFF;enable-background:new    ;}
</style>
<g id="Layer_2_1_">
	<g id="Layer_1-2">
		<path class="st0" d="M1198.7,722.3c-15.2-14.5-32.6-27-50.7-37.5c-109.1-63.8-242-68-362.5-106.1c-43.6-13.8-90.8-37.5-103.3-81.5
			C657.4,409.8,773,330.3,821.5,274c67-77.7-64.7-169-121.1-201.4C601.3,15.7,484.7-6.8,371.1-2C267.8,2.3,138.5,23.6,62.5,99.4
			C30.9,131-3.5,179.7,2.2,227c6.3,52.3,60.9,73.9,105.7,85.4c72.8,18.6,149,26.1,217.9,56.2c22.5,9.8,44.5,22.3,60.7,40.8
			c71.3,80.8-42.9,179.3-93.1,235.6c-45.7,51.3-86.2,120.6-63.7,185.5c12,34.7,40.2,61.2,69.9,82.7c76.3,55.5,167.5,87.2,259.5,108
			c152.8,34.5,316.2,39.6,467.5-5.1c92.6-27.4,258.9-100.6,217.8-224.6C1235.6,764.7,1219.1,741.7,1198.7,722.3z"/>
	</g>
</g>
</svg>
