<?xml version="1.0" encoding="utf-8"?>
<!-- Generator: Adobe Illustrator 24.1.0, SVG Export Plug-In . SVG Version: 6.00 Build 0)  -->
<svg version="1.1" id="Layer_1" xmlns="http://www.w3.org/2000/svg" xmlns:xlink="http://www.w3.org/1999/xlink" x="0px" y="0px"
	 viewBox="0 0 1257.7 1048.8" style="enable-background:new 0 0 1257.7 1048.8;" xml:space="preserve">
<style type="text/css">
	.st0{opacity:0.2;fill:#00FFFF;enable-background:new    ;}
</style>
<g id="Layer_2_1_">
	<g id="Layer_1-2">
		<path class="st0" d="M552,72.6C495.6,105,364,196.3,430.9,274c48.5,56.3,164.1,135.8,139.3,223.2c-12.5,44-59.7,67.7-103.3,81.5
			C346.4,616.8,213.5,621,104.4,684.8c-18,10.6-35.4,23.1-50.7,37.5c-20.4,19.4-37,42.4-45.8,69.1
			C-33.2,915.5,133.1,988.7,225.7,1016c151.3,44.7,314.7,39.6,467.5,5.1c92-20.8,183.2-52.5,259.5-108
			c29.7-21.6,57.9-48.1,69.9-82.7c22.5-64.9-18-134.3-63.7-185.5c-50.1-56.2-164.3-154.7-93.1-235.6c16.3-18.4,38.2-31,60.7-40.8
			c68.9-30,145.1-37.5,217.9-56.2c44.8-11.5,99.5-33.1,105.7-85.4c5.7-47.3-28.7-96-60.4-127.5C1113.9,23.6,984.6,2.3,881.3-2
			C748.7,1.2,637.8,25,552,72.6z"/>
	</g>
</g>
</svg>
