<?xml version="1.0" encoding="utf-8"?>
<!-- Generator: Adobe Illustrator 24.1.0, SVG Export Plug-In . SVG Version: 6.00 Build 0)  -->
<svg version="1.1" id="Layer_1" xmlns="http://www.w3.org/2000/svg" xmlns:xlink="http://www.w3.org/1999/xlink" x="0px" y="0px"
	 viewBox="0 0 1264.2 1317.9" style="enable-background:new 0 0 1264.2 1317.9;" xml:space="preserve">
<style type="text/css">
	.st0{opacity:0.2;fill:#00FFFF;enable-background:new    ;}
</style>
<g id="Layer_2_1_">
	<g id="Layer_1-2">
		<path class="st0" d="M1246.2,979.4c12.8-39.3,20.3-81.9,21.8-127.6c4.1-125.9-54.3-254.6-155.6-330.5
			c-60-45-143.2-49.8-214.2-65.3c-16.6-3.6-35-8.6-43.7-23.1c-7.9-13.3-5.1-30.1-1.6-45.2c11.3-49.8,26.1-101,16.7-151.2
			C839.9,76.9,590.3,24,458.4,6.4C400.3-1.4,340.8-4.5,283.3,6.8C194,24.4,125.4,83.6,68.8,152.2C43.6,182.8,13.5,222.7,9,263.6
			c-7,63.2,55.5,68,104,86c66,24.4,132.6,49.1,191.9,87c70,44.7,90.1,117,72.9,197.5c-12.5,58.4-41.5,111.7-67.5,165.4
			c-58.8,121.4-67.2,254.3,29.4,359.3c60.7,66,145.5,105.3,232,128.8C839.2,1360.3,1160.2,1244.5,1246.2,979.4z"/>
	</g>
</g>
</svg>
