<?xml version="1.0" encoding="utf-8"?>
<!-- Generator: Adobe Illustrator 24.1.0, SVG Export Plug-In . SVG Version: 6.00 Build 0)  -->
<svg version="1.1" id="Layer_1" xmlns="http://www.w3.org/2000/svg" xmlns:xlink="http://www.w3.org/1999/xlink" x="0px" y="0px"
	 viewBox="0 0 1308.3 1048.5" style="enable-background:new 0 0 1308.3 1048.5;" xml:space="preserve">
<style type="text/css">
	.st0{opacity:0.2;fill:#00FFFF;enable-background:new    ;}
</style>
<g id="Layer_2_1_">
	<g id="Layer_1-2">
		<path class="st0" d="M723.1,500.9c-5.6,0.4-11.1,0.9-16.7,1.5c-19.9,2.1-40.2,6.8-56.1,18.9c-25.6,19.4-34.7,54.1-34.7,86.3
			c0,74.8,23.3,147,19.5,221.9c-2.8,56.1-20.9,113.5-60.8,153.1c-82.3,81.8-262.2,88.7-360.5,36.3c-53.7-28.6-93.5-78.1-124.2-130.7
			C-2.9,730-28.9,529.6,52.3,362.9c74-151.8,227.6-260.4,403.3-227c51.7,9.8,101,31.1,153.2,37.3C773.7,192.9,916.8,64,1077.6,23
			c50.1-12.8,105.8-16.2,150.9,9c76.4,42.6,91.3,149.9,64.6,233.2c-33.8,105.3-111.9,180.3-215.8,215.7
			C957.3,521.7,843.7,491.9,723.1,500.9z"/>
	</g>
</g>
</svg>
