<?xml version="1.0" encoding="utf-8"?>
<!-- Generator: Adobe Illustrator 24.1.0, SVG Export Plug-In . SVG Version: 6.00 Build 0)  -->
<svg version="1.1" id="Layer_1" xmlns="http://www.w3.org/2000/svg" xmlns:xlink="http://www.w3.org/1999/xlink" x="0px" y="0px"
	 viewBox="0 0 1610.3 782.7" style="enable-background:new 0 0 1610.3 782.7;" xml:space="preserve">
<style type="text/css">
	.st0{opacity:0.2;fill:#00FFFF;enable-background:new    ;}
</style>
<g id="Layer_2_1_">
	<g id="Layer_1-2">
		<path class="st0" d="M962.5,250.1c32.3,12.9,65.9,26.3,100.6,23.8c50.2-3.6,92.4-39,125.3-77.1c33-38.1,61.4-81.3,102.6-110.2
			c56.1-39.5,115.3-30,170.3,4.6c150.7,95,177.9,285.4,22.8,395.3c-71.1,50.3-166.9,71.7-253.3,67.1c-12.2-0.6-24.4-2.4-36.7-4.8
			c-70.1-13.5-225.1-61.8-240.4,54.4c-4.3,32.4,10.4,65.4,3.9,97.4c-5.8,28-27.6,50.7-53,63.8c-25.5,13-54.3,17.6-82.8,20.1
			c-136.6,12.2-275.1-16.3-408.1-44.4c-46.5-9.8-96.9-17.5-141.7-34.1C183,673.3,115.5,595.4,77.1,511
			C37.9,424.8,0.2,310.3,6.8,214.7C19.6,28,200.1-33.5,353.5,14.9C509.2,63.9,810.9,189.7,962.5,250.1z"/>
	</g>
</g>
</svg>
