<?xml version="1.0" encoding="utf-8"?>
<!-- Generator: Adobe Illustrator 24.1.0, SVG Export Plug-In . SVG Version: 6.00 Build 0)  -->
<svg version="1.1" id="Layer_1" xmlns="http://www.w3.org/2000/svg" xmlns:xlink="http://www.w3.org/1999/xlink" x="0px" y="0px"
	 viewBox="0 0 1268.1 1163.6" style="enable-background:new 0 0 1268.1 1163.6;" xml:space="preserve">
<style type="text/css">
	.st0{opacity:0.2;fill:#00FFFF;enable-background:new    ;}
</style>
<g id="Layer_2_1_">
	<g id="Layer_1-2">
		<path class="st0" d="M1139.6,178c131.3,163.7,165.6,353.8,71,547.1c-34.8,71.1-84.7,106.3-164.9,101.4
			c-155.3-9.5-344.7-103.8-490.1-9c-10.2,6.6-19.6,14.7-27.4,24c-9.4,11.3-16.5,24.4-19.3,38.8c-4.3,21.8,1.2,44.3,2.3,66.5
			c4.1,87-69.1,148.9-141.4,182.6c-45.3,21.1-95.3,35.7-144.9,29.6C28.6,1134.9-17.4,812.7,13.9,660.6
			c30-146.2,161.4-257.5,314.8-233.3c59.7,9.5,116.3,32.8,175.1,47.1c64.3,15.6,144.3,23.5,195.2-26.2
			c68.7-67.1,35.6-181.3,39.2-265.8C742.7,76.9,813.3-19.6,930.8,7.4C1024.2,40.8,1088.1,103.2,1139.6,178z"/>
	</g>
</g>
</svg>
