<?xml version="1.0" encoding="utf-8"?>
<!-- Generator: Adobe Illustrator 24.1.0, SVG Export Plug-In . SVG Version: 6.00 Build 0)  -->
<svg version="1.1" id="Layer_1" xmlns="http://www.w3.org/2000/svg" xmlns:xlink="http://www.w3.org/1999/xlink" x="0px" y="0px"
	 viewBox="0 0 1353.5 1207.8" style="enable-background:new 0 0 1353.5 1207.8;" xml:space="preserve">
<style type="text/css">
	.st0{opacity:0.2;fill:#00FFFF;enable-background:new    ;}
</style>
<g id="Layer_2_1_">
	<g id="Layer_1-2">
		<path class="st0" d="M1246,80.4c95,91.5,115.7,262.4,106.3,388.3c-5.8,78.7-28.7,156-66.4,225.3c-48.6,89.3-101,170.5-213.2,133.3
			c-89.4-29.7-243.6-113.7-349.8-79.7c-24.2,7.7-45.9,21.6-63.7,43.7c-19.9,24.6-31.7,54.7-41.3,84.8
			c-50.2,157.5-111.4,335-311.2,331.8c-143-2.2-236.1-117.7-268-247.1C2.3,813.3-34.8,634.7,43.3,494.2
			c76-136.7,231.1-204.7,382.4-175.2c60.5,11.8,119.9,31.1,181.4,35.3c152.3,10.4,156.6-158.9,227.9-253
			C886.9,32.7,966.8,0.3,1047.3,1C1129.5,9.9,1196.5,35.5,1246,80.4z"/>
	</g>
</g>
</svg>
