<?xml version="1.0" encoding="utf-8"?>
<!-- Generator: Adobe Illustrator 24.1.0, SVG Export Plug-In . SVG Version: 6.00 Build 0)  -->
<svg version="1.1" id="Layer_1" xmlns="http://www.w3.org/2000/svg" xmlns:xlink="http://www.w3.org/1999/xlink" x="0px" y="0px"
	 viewBox="0 0 1054.9 1160.7" style="enable-background:new 0 0 1054.9 1160.7;" xml:space="preserve">
<style type="text/css">
	.st0{opacity:0.2;fill:#00FFFF;enable-background:new    ;}
</style>
<g id="Layer_2_1_">
	<g id="Layer_1-2">
		<path class="st0" d="M1051,402.6c-10.2,81.7-37.4,166.5-85.7,233.9c-97.4,136.1-297,70.8-393.8,197.3c-1.3,1.8-2.6,3.5-3.9,5.3
			c-30,42.6-38.3,96.9-57.8,145.5c-27.7,69.1-81.2,129-149.9,157.9s-152.2,24-213.4-18.4C15.3,1033.2-38.2,749.5,21.6,608.6
			c41.7-98.3,128.6-177.5,231.8-206.4c95.9-26.9,202.5-4.4,288.3-65.5C658.1,253.7,662.6,12.5,831.4,1.4
			C984.1,1.4,1064.7,122.7,1051,402.6z"/>
	</g>
</g>
</svg>
