<?xml version="1.0" encoding="utf-8"?>
<!-- Generator: Adobe Illustrator 24.1.0, SVG Export Plug-In . SVG Version: 6.00 Build 0)  -->
<svg version="1.1" id="Layer_1" xmlns="http://www.w3.org/2000/svg" xmlns:xlink="http://www.w3.org/1999/xlink" x="0px" y="0px"
	 viewBox="0 0 1049.2 1207.9" style="enable-background:new 0 0 1049.2 1207.9;" xml:space="preserve">
<style type="text/css">
	.st0{opacity:0.2;fill:#00FFFF;enable-background:new    ;}
</style>
<g id="Layer_2_1_">
	<g id="Layer_1-2">
		<path class="st0" d="M763.1,2.1c-27.2-2.6-56.5-2.3-79.2,12.8c-25.7,17.1-37.1,49.6-38.4,80.5c-3,70.9,21.4,141.1,32.8,210.3
			c3.5,21.6,4.8,45.6-7.6,63.7c-10.9,15.8-30.2,23.7-49,27.9c-83.9,18.7-163-22-246.1-22.3c-121.6-0.5-274.8,50.7-341.3,159.7
			c-99,162.2-32.9,353.5,85.5,485.1c74.4,82.7,353,305.3,434.6,121.6c19.9-44.8,6-96.4-5-144.2c-20.7-90.3,1.5-180.6,109.1-179.3
			c136.7,1.6,283.8,5.8,343.1-142.6c6-15,11.1-30.2,15.4-45.6c20.2-71.6,24.2-147.1,28-221.2c4.3-83.9,17.5-167.7-5-250.2
			C1005.7,51.5,900.3,11.8,763.1,2.1z"/>
	</g>
</g>
</svg>
