<?xml version="1.0" encoding="utf-8"?>
<!-- Generator: Adobe Illustrator 24.1.0, SVG Export Plug-In . SVG Version: 6.00 Build 0)  -->
<svg version="1.1" id="Layer_1" xmlns="http://www.w3.org/2000/svg" xmlns:xlink="http://www.w3.org/1999/xlink" x="0px" y="0px"
	 viewBox="0 0 1350.8 1057.6" style="enable-background:new 0 0 1350.8 1057.6;" xml:space="preserve">
<style type="text/css">
	.st0{opacity:0.2;fill:#00FFFF;enable-background:new    ;}
</style>
<g id="Layer_2_1_">
	<g id="Layer_1-2">
		<path class="st0" d="M1069.5,2.9C971,12.6,963.8,137.2,941.2,211c-13.4,43.6-34.7,87.4-72.6,113c-47,31.8-106.8,24.1-156.2,2.1
			c-108.6-48.2-209.3-91.1-331.6-82.2c-114.8,8.3-230,62.5-296.5,158.7C23.9,490.1-20.3,652.1,7,756.6
			c18,69.1,67.5,127.4,121.2,172.3c93.8,78.5,263.5,165.7,387.1,107.6c55.8-26.2,79.3-81.9,80.4-141.2c0.6-35.4-9.9-70-12.1-105.3
			c-2.2-35.3,6.5-74.9,35.7-94.8c28.6-19.6,66.5-14.9,98.3-7.2c134.6,32.5,295.5,172.3,437.1,96.9c32.3-17.2,57.9-44.8,79-76.6
			c27.3-41,47.1-89.1,64.4-130.6c36.5-88,60.9-185.7,47.8-281.4c-15.5-112.4-81.9-200.9-173.9-263.2
			C1142.6,13.3,1109.1,1.9,1069.5,2.9z"/>
	</g>
</g>
</svg>
