<?xml version="1.0" encoding="utf-8"?>
<!-- Generator: Adobe Illustrator 24.1.0, SVG Export Plug-In . SVG Version: 6.00 Build 0)  -->
<svg version="1.1" id="Layer_1" xmlns="http://www.w3.org/2000/svg" xmlns:xlink="http://www.w3.org/1999/xlink" x="0px" y="0px"
	 viewBox="0 0 1125.6 1231.7" style="enable-background:new 0 0 1125.6 1231.7;" xml:space="preserve">
<style type="text/css">
	.st0{opacity:0.2;fill:#00FFFF;enable-background:new    ;}
</style>
<g id="Layer_2_1_">
	<g id="Layer_1-2">
		<path class="st0" d="M481.8,230.1c1.3,40.7-4.3,113.5,28.6,160.5c28.6,41,77.2,51.5,122.2,64.6c67.6,19.7,135.7,40.3,202.6,62.2
			c74.4,24.3,148,56.9,204.9,110.7c246.1,232.8-69.3,554.5-319.4,595c-49.4,8-132,7-157.7-45.1c-21.7-43.8,15.7-99.8,40.2-134.5
			c25-35.5,77.3-84.7,72.7-132.3c-4.8-50.1-61.4-66.7-103.9-71.4c-121.2-13.4-252.2,28.4-370.3-7.1C119.3,807.7,63,746.3,25.5,671.2
			C-29.1,562-9.7,393.6,31.7,283.8C73.3,173.8,182.1,1.6,314.6-2C458.1-3.5,479.6,158.6,481.8,230.1z"/>
	</g>
</g>
</svg>
