<?xml version="1.0" encoding="utf-8"?>
<!-- Generator: Adobe Illustrator 24.1.0, SVG Export Plug-In . SVG Version: 6.00 Build 0)  -->
<svg version="1.1" id="Layer_1" xmlns="http://www.w3.org/2000/svg" xmlns:xlink="http://www.w3.org/1999/xlink" x="0px" y="0px"
	 viewBox="0 0 1254.8 1119.7" style="enable-background:new 0 0 1254.8 1119.7;" xml:space="preserve">
<style type="text/css">
	.st0{opacity:0.2;fill:#00FFFF;enable-background:new    ;}
</style>
<g id="Layer_2_1_">
	<g id="Layer_1-2">
		<path class="st0" d="M462.6-2.8c-87.2-2-182.8,24.8-244,50.2C111.2,92-11.9,259.6,0.7,379.6c6.1,57.3,56.1,83.8,109.4,88.4
			c69.8,6,139.1-14.1,209.1-18.3c46.4-2.7,108.1,4.4,131.9,51.1c15.2,29.8,7.2,65.5,0.4,98.2c-29.6,142.6-21,305.8,90.4,412.6
			c92.9,89.1,229.5,111.7,353.5,108.4c25.9-0.7,52.4-2.9,76.3-13c124.7-52.5,55.5-266.5,71.3-367.3c0-0.2,0.1-0.4,0.1-0.6
			c15.9-100.1,86.3-151.6,147.5-223.9c52.5-62,94.7-146.2,0.3-192.1c-39.2-19.1-85.4-17.9-128.1-9.4c-42.8,8.5-83.9,23.8-126.7,32.1
			c-123.8,24-218.2-59-258.8-171.7c-11.5-32-21.2-65.1-38.8-94.3C613.7,31.6,556,3.5,462.6-2.8z"/>
	</g>
</g>
</svg>
