<?xml version="1.0" encoding="utf-8"?>
<!-- Generator: Adobe Illustrator 24.1.0, SVG Export Plug-In . SVG Version: 6.00 Build 0)  -->
<svg version="1.1" id="Layer_1" xmlns="http://www.w3.org/2000/svg" xmlns:xlink="http://www.w3.org/1999/xlink" x="0px" y="0px"
	 viewBox="0 0 1102.4 1305.5" style="enable-background:new 0 0 1102.4 1305.5;" xml:space="preserve">
<style type="text/css">
	.st0{opacity:0.2;fill:#00FFFF;enable-background:new    ;}
</style>
<g id="Layer_2_1_">
	<g id="Layer_1-2">
		<path class="st0" d="M667.8,0.9c-34.4,3.3-62.3,18.7-74.8,54.3c-8.5,24.3-4.6,52.7,1,77.2c23.1,100.7,207.4,442.7-14.3,435.1
			c-93-3.2-186.7-15.9-278.6-1.1C158.4,589.5,49.9,714.2,12.5,850.1c-43.7,159.2,16.4,314.8,163,394.2
			c49.2,26.6,103.4,44.2,158.6,53.1c168.1,27,351.6-33.4,447.5-179.9c5.3-8.1,10.2-16.3,14.9-24.8C849.2,997,867,889.5,907,789.2
			c9-22.6,19.8-44.2,33.8-64.1c34.9-49.5,84-86.9,118.8-136.4c39.2-55.8,50.8-124.4,42.6-191.5c-16.7-136.2-60.4-271.2-154.9-327.1
			S769.5,1,667.8,0.9z"/>
	</g>
</g>
</svg>
