<?xml version="1.0" encoding="utf-8"?>
<!-- Generator: Adobe Illustrator 24.1.0, SVG Export Plug-In . SVG Version: 6.00 Build 0)  -->
<svg version="1.1" id="Layer_1" xmlns="http://www.w3.org/2000/svg" xmlns:xlink="http://www.w3.org/1999/xlink" x="0px" y="0px"
	 viewBox="0 0 1307 1178.8" style="enable-background:new 0 0 1307 1178.8;" xml:space="preserve">
<style type="text/css">
	.st0{opacity:0.2;fill:#00FFFF;enable-background:new    ;}
</style>
<g id="Layer_2_1_">
	<g id="Layer_1-2">
		<path class="st0" d="M1299.2,723c-1.8-29.2-8.2-57.9-21.6-83.8c-32-61.7-85.4-79.3-150-59.9c-55.2,16.5-134.2,82-192.6,57.8
			c-32.5-13.5-46-51.7-53.9-86.1c-17.7-77.1-25.9-157-53.6-231.5c-27.5-74-78.7-139.4-136.5-192.4C609.3,51.9,493.9-9.3,379.3,0.9
			C231.8,14.2,95.7,122.9,35.4,257C-26.2,394.3,8.7,592.9,134,687c9.6,7.2,20.7,13.5,32.7,13.4c36.2-0.3,63.2-36.2,89-56.5
			c66.5-52.3,118.3,9.6,125.2,77.1c9.6,93.9-20.1,173.5,35.3,260.4c102,159.8,365.4,191.1,535.2,162.5
			c185.4-31.3,323-173.4,345.7-361.1C1299.5,763.1,1300.4,742.9,1299.2,723z"/>
	</g>
</g>
</svg>
