<?xml version="1.0" encoding="utf-8"?>
<!-- Generator: Adobe Illustrator 24.1.0, SVG Export Plug-In . SVG Version: 6.00 Build 0)  -->
<svg version="1.1" id="Layer_1" xmlns="http://www.w3.org/2000/svg" xmlns:xlink="http://www.w3.org/1999/xlink" x="0px" y="0px"
	 viewBox="0 0 1054.9 1160.7" style="enable-background:new 0 0 1054.9 1160.7;" xml:space="preserve">
<style type="text/css">
	.st0{opacity:0.2;fill:#00FFFF;enable-background:new    ;}
</style>
<g id="Layer_2_1_">
	<g id="Layer_1-2">
		<path class="st0" d="M825.6,733.7c-84.2,34.5-169.2,34-257.9,44c-66.1,7.5-143.4,33.4-117.7,114.9c7.2,23,18.9,44.5,24.2,68
			c13.3,59.4-22.2,113.7-70.4,145.9c-73.8,49.4-180.2,78.3-259,23.3c-50.9-35.5-67.8-91.3-88.4-146.5
			c-41-109.9-75.1-230.6-38.6-346.5c31.8-101,110.4-188.4,211.1-223.7c74-26,154.7-25.8,228.2-53.5c90.2-34,91.1-101,116.3-183.2
			C612,50.4,778.3-43.1,901.1,21.3c213.6,111.9,188,496.6,32.9,644C902.4,695.4,865.4,717.5,825.6,733.7z"/>
	</g>
</g>
</svg>
