<?xml version="1.0" encoding="utf-8"?>
<!-- Generator: Adobe Illustrator 24.1.0, SVG Export Plug-In . SVG Version: 6.00 Build 0)  -->
<svg version="1.1" id="Layer_1" xmlns="http://www.w3.org/2000/svg" xmlns:xlink="http://www.w3.org/1999/xlink" x="0px" y="0px"
	 viewBox="0 0 1397.2 1134.7" style="enable-background:new 0 0 1397.2 1134.7;" xml:space="preserve">
<style type="text/css">
	.st0{opacity:0.2;fill:#00FFFF;enable-background:new    ;}
</style>
<g id="Layer_2_1_">
	<g id="Layer_1-2">
		<path class="st0" d="M1337.5,825.6c32.9-69.6,51.6-146.4,58.1-223.4c8-94.8-17.1-196.5-122.6-218.9
			c-110-23.3-189.6,61.4-295.1,58.7c-92-2.4-167.8-75.2-185-162.3c-17.1-86.2-22.7-158-100.9-213.4
			C571.9-18.8,412.4-20.6,279.5,34.5C143.1,90.9-6.1,233.2,4,393.7c1.1,16.9,4.8,34.2,14.9,47.8c45.2,60.2,142.4,27.9,203.6,21.6
			c23-2.4,47.6-0.9,67.3,11.2c63.7,39.2,35.4,139.2,36.4,199.5c1.2,81.5,14.9,164.4,53.7,237c76.3,142.8,242,224.2,403.8,226.1
			c144.9,1.7,297.4-44.2,413.6-133.8C1259,955.5,1305.1,894.1,1337.5,825.6z"/>
	</g>
</g>
</svg>
