<?xml version="1.0" encoding="utf-8"?>
<!-- Generator: Adobe Illustrator 24.1.0, SVG Export Plug-In . SVG Version: 6.00 Build 0)  -->
<svg version="1.1" id="Layer_1" xmlns="http://www.w3.org/2000/svg" xmlns:xlink="http://www.w3.org/1999/xlink" x="0px" y="0px"
	 viewBox="0 0 1134 1198.9" style="enable-background:new 0 0 1134 1198.9;" xml:space="preserve">
<style type="text/css">
	.st0{opacity:0.2;fill:#00FFFF;enable-background:new    ;}
</style>
<g id="Layer_2_1_">
	<g id="Layer_1-2">
		<path class="st0" d="M713.1,5.3c-44.8,3.1-76.2,29-72.4,76.5c2.9,36.7,10.2,73,12.6,109.7c2.5,36.7-0.1,74.8-15.9,108.1
			c-32.4,68.5-106,74.9-173.5,71.3c-133.6-7.1-288.7-1.5-387.3,102.5C-3.7,558-5.5,658.8,8.5,768.1c13.3,103.5,59.9,202.7,132,278.3
			c78.5,82.3,410.5,269.5,420.3,38.2c1.8-42.9-12.2-84.7-23.5-126.2c-15.6-57.5-26-127.9,19-175.1c28.4-29.8,71.5-40.8,112.6-43.4
			c106.3-6.8,211,2.4,305.7-56.8c66-41.3,113.9-100.9,140.8-168.9c29.6-74.6,34-159.3,9.7-241c-25.6-86.3-86.3-154.8-163.8-198.9
			C903.6,36.2,821,13.1,713.1,5.3z"/>
	</g>
</g>
</svg>
